<?xml version="1.0" encoding="UTF-8"?>
<svg version="1.1" xmlns="http://www.w3.org/2000/svg" xmlns:xlink="http://www.w3.org/1999/xlink" width="638px" height="84px" viewBox="0 0 638 84">
    <defs>
        <radialGradient id="canvas1-canvas1abezier2-bezier2" cx="185.87" cy="34.08"  r="50.91" fx="185.87" fy="34.08" gradientUnits="userSpaceOnUse" >
            <stop offset="0" stop-color="rgb(249, 190, 3)" stop-opacity="1" />
            <stop offset="1" stop-color="rgb(204, 124, 25)" stop-opacity="1" />
        </radialGradient>
    </defs>

    <g id="plex-request-logo" stroke="none" fill="rgb(73, 73, 73)">
        <g id="plex-group">
            <path d="M 209.99,-0 L 190.26,-0 170.52,34.23 190.26,68.47 209.97,68.47 190.26,34.25 209.99,-0 Z M 209.99,-0" />
            <path fill="url(#canvas1-canvas1abezier2-bezier2)" d="M 148.75,-0 L 168.48,-0 190.26,34.25 168.48,68.5 148.75,68.5 170.52,34.25 148.75,-0 Z M 148.75,-0" />
            <path d="M 141.94,68.47 L 102.67,68.47 102.67,-0 141.94,-0 141.94,11.89 117.13,11.89 117.13,26.93 140.22,26.93 140.22,38.82 117.13,38.82 117.13,56.48 141.94,56.48 141.94,68.47 Z M 53.84,68.47 L 53.84,-0 68.27,-0 68.27,56.48 95.87,56.48 95.87,68.47 53.84,68.47 Z M 40.14,38.26 C 35.57,42.16 29.06,44.11 20.62,44.11 L 14.43,44.11 14.43,68.47 0,68.47 0,32.2 19.73,32.23 C 31.82,32.09 32.45,24.64 32.45,22.06 32.45,19.66 32.45,12.01 21.71,11.89 L 0,11.89 0,-0 21.74,-0 C 29.99,-0 36.26,1.79 40.56,5.36 44.86,8.94 47.01,14.27 47.01,21.36 47.01,28.72 44.72,34.36 40.14,38.26 Z M 40.14,38.26" />
            <rect x="0" y="8" width="14.2" height="29" />
        </g>

        <path d="M 243.88,41.21 L 243.88,66.98 229.66,66.98 229.66,-0.19 249.19,-0.19 C 258.26,-0.19 264.99,1.47 269.4,4.79 273.8,8.11 276,13.15 276,19.92 276,23.87 274.92,27.38 272.76,30.46 270.6,33.54 267.52,35.97 263.51,37.74 273.6,52.81 280.18,62.56 283.24,66.98 L 267.43,66.98 251.43,41.21 243.88,41.21 Z M 243.88,11.5 L 243.88,29.62 248.47,29.62 C 252.96,29.62 256.27,28.87 258.41,27.37 260.55,25.88 261.62,23.55 261.62,20.38 261.62,17.22 260.54,14.95 258.39,13.57 256.23,12.19 252.82,11.5 248.16,11.5 L 243.88,11.5 Z M 330.29,55.24 L 330.29,66.98 291.7,66.98 291.7,-0.19 330.29,-0.19 330.29,11.5 305.92,11.5 305.92,26.25 328.6,26.25 328.6,37.89 305.92,37.89 305.92,55.24 330.29,55.24 Z M 369.31,11.63 C 363.67,11.63 359.41,13.54 356.54,17.35 353.67,21.16 352.23,26.81 352.23,34.3 352.23,49.4 357.9,56.96 369.23,56.96 380.57,56.96 386.24,49.4 386.24,34.3 386.24,19.19 380.6,11.63 369.31,11.63 Z M 401.17,34.3 C 401.17,42.22 399.77,48.86 396.97,54.2 394.16,59.54 390.06,63.46 384.66,65.94 L 400.82,83.96 382.57,83.96 370.28,68.9 369.21,68.9 C 358.95,68.9 351.06,65.92 345.56,59.97 340.05,54.01 337.3,45.44 337.3,34.25 337.3,23.05 340.05,14.51 345.56,8.62 351.13,2.73 359.07,-0.21 369.36,-0.21 379.66,-0.21 387.54,2.77 392.99,8.72 398.44,14.68 401.17,23.2 401.17,34.3 Z M 451.46,-0.19 L 465.68,-0.19 465.68,43.3 C 465.75,50.75 463.25,56.74 458.19,61.27 453.13,65.79 446.35,68 437.85,67.9 429.18,67.9 422.48,65.68 417.74,61.24 413,56.8 410.63,50.75 410.63,43.1 L 410.63,-0.19 424.8,-0.19 424.8,40.95 C 424.8,46.19 425.85,50 427.93,52.39 430.03,54.77 433.42,55.96 438.13,55.96 442.84,55.96 446.24,54.75 448.33,52.33 450.42,49.92 451.46,46.09 451.46,40.85 L 451.46,-0.19 Z M 516.69,55.24 L 516.69,66.98 478.1,66.98 478.1,-0.19 516.69,-0.19 516.69,11.5 492.32,11.5 492.32,26.25 515,26.25 515,37.89 492.32,37.89 492.32,55.24 516.69,55.24 Z M 570.26,49.35 C 570.26,55.38 568.09,60.14 563.74,63.64 559.39,67.15 553.48,68.9 546,68.9 538.52,68.9 532.05,67.56 526.58,64.87 L 526.58,51.65 C 531.1,53.62 534.92,55.03 538.05,55.89 541.17,56.74 544.18,57.16 547.07,57.16 549.96,57.16 552.23,56.56 553.87,55.35 555.52,54.14 556.35,52.36 556.35,50.02 556.35,48.66 555.97,47.47 555.23,46.47 554.48,45.46 553.45,44.51 552.14,43.61 550.83,42.71 548,41.23 543.63,39.17 539.26,37.11 536.08,35.2 534.07,33.43 529.58,29.55 527.34,24.68 527.34,18.83 527.34,12.98 529.35,8.35 533.36,4.95 537.37,1.54 542.92,-0.16 550.03,-0.16 556.04,-0.16 562.68,1.42 569.96,4.59 L 565.37,15.66 C 561.8,14.2 558.83,13.18 556.45,12.6 554.07,12.02 551.66,11.73 549.24,11.73 546.81,11.73 544.87,12.35 543.42,13.57 541.98,14.8 541.26,16.45 541.26,18.52 541.26,20.91 542.46,22.91 544.88,24.55 546.07,25.36 549.07,26.91 553.9,29.19 560.12,32.19 564.4,35.2 566.75,38.22 569.09,41.25 570.26,44.96 570.26,49.35 Z M 608.29,11.65 L 608.29,66.98 594.07,66.98 594.07,11.65 575.87,11.65 575.87,-0.19 626.49,-0.19 626.49,11.65 608.29,11.65 Z M 608.29,11.65" />
    </g>
</svg>
