<?xml version="1.0" encoding="UTF-8"?>
<svg version="1.1" xmlns="http://www.w3.org/2000/svg" xmlns:xlink="http://www.w3.org/1999/xlink" width="638px" height="84px" viewBox="0 0 215 125">
    <defs>
        <radialGradient id="plex-gradient" cx="185.87" cy="34.08"  r="50.91" fx="185.87" fy="34.08" gradientUnits="userSpaceOnUse" >
            <stop offset="0" stop-color="rgb(249, 190, 3)" stop-opacity="1" />
            <stop offset="1" stop-color="rgb(204, 124, 25)" stop-opacity="1" />
        </radialGradient>
    </defs>

    <g id="plex-request-logo" stroke="none" fill="rgb(73, 73, 73)">
        <g id="plex-group">
            <path d="M 209.99,-0 L 190.26,-0 170.52,34.23 190.26,68.47 209.97,68.47 190.26,34.25 209.99,-0 Z M 209.99,-0" />
            <path fill="url(#plex-gradient)" d="M 148.75,-0 L 168.48,-0 190.26,34.25 168.48,68.5 148.75,68.5 170.52,34.25 148.75,-0 Z M 148.75,-0" />
            <path d="M 141.94,68.47 L 102.67,68.47 102.67,-0 141.94,-0 141.94,11.89 117.13,11.89 117.13,26.93 140.22,26.93 140.22,38.82 117.13,38.82 117.13,56.48 141.94,56.48 141.94,68.47 Z M 53.84,68.47 L 53.84,-0 68.27,-0 68.27,56.48 95.87,56.48 95.87,68.47 53.84,68.47 Z M 40.14,38.26 C 35.57,42.16 29.06,44.11 20.62,44.11 L 14.43,44.11 14.43,68.47 0,68.47 0,32.2 19.73,32.23 C 31.82,32.09 32.45,24.64 32.45,22.06 32.45,19.66 32.45,12.01 21.71,11.89 L 0,11.89 0,-0 21.74,-0 C 29.99,-0 36.26,1.79 40.56,5.36 44.86,8.94 47.01,14.27 47.01,21.36 47.01,28.72 44.72,34.36 40.14,38.26 Z M 40.14,38.26" />
            <rect x="0" y="8" width="14.2" height="29" />
        </g>

        <!-- REQUEST -->
        <path d="M 7.53,98.14 L 7.53,111.92 0,111.92 0,76.01 10.34,76.01 C 15.13,76.01 18.7,76.9 21.03,78.67 23.36,80.45 24.52,83.14 24.52,86.76 24.52,88.87 23.95,90.75 22.81,92.4 21.67,94.04 20.04,95.34 17.91,96.29 23.25,104.35 26.73,109.56 28.35,111.92 L 19.99,111.92 11.52,98.14 7.53,98.14 Z M 7.53,82.26 L 7.53,91.95 9.95,91.95 C 12.33,91.95 14.08,91.55 15.21,90.75 16.35,89.95 16.91,88.7 16.91,87.01 16.91,85.32 16.34,84.11 15.2,83.37 14.06,82.63 12.26,82.26 9.79,82.26 L 7.53,82.26 Z M 53.25,105.65 L 53.25,111.92 32.83,111.92 32.83,76.01 53.25,76.01 53.25,82.26 40.36,82.26 40.36,90.15 52.36,90.15 52.36,96.37 40.36,96.37 40.36,105.65 53.25,105.65 Z M 73.9,82.33 C 70.92,82.33 68.66,83.35 67.14,85.39 65.63,87.43 64.86,90.45 64.86,94.45 64.86,102.52 67.86,106.56 73.86,106.56 79.86,106.56 82.86,102.52 82.86,94.45 82.86,86.37 79.88,82.33 73.9,82.33 Z M 90.76,94.45 C 90.76,98.68 90.02,102.23 88.54,105.09 87.05,107.94 84.88,110.04 82.03,111.37 L 90.58,121 80.92,121 74.42,112.95 73.85,112.95 C 68.42,112.95 64.24,111.36 61.33,108.17 58.42,104.99 56.96,100.41 56.96,94.42 56.96,88.44 58.42,83.87 61.33,80.72 64.28,77.57 68.48,76 73.93,76 79.38,76 83.55,77.59 86.43,80.77 89.32,83.96 90.76,88.52 90.76,94.45 Z M 117.38,76.01 L 124.9,76.01 124.9,99.26 C 124.94,103.24 123.61,106.45 120.94,108.87 118.26,111.29 114.67,112.47 110.17,112.41 105.58,112.41 102.04,111.23 99.53,108.85 97.02,106.48 95.77,103.24 95.77,99.15 L 95.77,76.01 103.27,76.01 103.27,98.01 C 103.27,100.81 103.82,102.84 104.92,104.12 106.03,105.39 107.83,106.03 110.32,106.03 112.81,106.03 114.61,105.38 115.72,104.09 116.82,102.8 117.38,100.75 117.38,97.95 L 117.38,76.01 Z M 151.89,105.65 L 151.89,111.92 131.47,111.92 131.47,76.01 151.89,76.01 151.89,82.26 139,82.26 139,90.15 151,90.15 151,96.37 139,96.37 139,105.65 151.89,105.65 Z M 180.24,102.5 C 180.24,105.72 179.1,108.27 176.79,110.14 174.49,112.01 171.36,112.95 167.41,112.95 163.45,112.95 160.02,112.23 157.13,110.79 L 157.13,103.73 C 159.52,104.78 161.54,105.53 163.2,105.99 164.85,106.45 166.44,106.67 167.97,106.67 169.5,106.67 170.7,106.35 171.57,105.7 172.44,105.06 172.88,104.11 172.88,102.85 172.88,102.13 172.68,101.49 172.29,100.96 171.89,100.42 171.35,99.91 170.65,99.43 169.96,98.95 168.46,98.16 166.15,97.05 163.84,95.95 162.16,94.93 161.09,93.99 158.72,91.91 157.53,89.31 157.53,86.18 157.53,83.05 158.59,80.58 160.72,78.76 162.84,76.94 165.78,76.03 169.54,76.03 172.72,76.03 176.23,76.87 180.08,78.57 L 177.66,84.48 C 175.77,83.7 174.19,83.16 172.94,82.85 171.68,82.54 170.4,82.38 169.12,82.38 167.83,82.38 166.81,82.71 166.04,83.37 165.28,84.02 164.9,84.91 164.9,86.01 164.9,87.29 165.53,88.36 166.81,89.24 167.44,89.67 169.03,90.5 171.59,91.72 174.88,93.32 177.14,94.93 178.39,96.55 179.62,98.17 180.24,100.15 180.24,102.5 Z M 200.37,82.34 L 200.37,111.92 192.84,111.92 192.84,82.34 183.21,82.34 183.21,76.01 210,76.01 210,82.34 200.37,82.34 Z M 200.37,82.34" />
    </g>
</svg>
